# xmcd CD database file
#
# Track frame offsets:
#	150
#	20416
#	48826
#	54486
#	61136
#	77127
#	83670
#	118908
#	144987
#	184231
#	224361
#	228635
#	242970
#	264216
#	281123
#	307649
#
# Disc length: 4211 seconds
#
# Revision: 0
# Processed by: cddbd v1.5.2PL0 Copyright (c) Steve Scherf et al.
# Submitted via: CDex 1.51
#
DISCID=da107110
DTITLE=The Osland Saxophone Quartet - Commission: Impossible Disc 1
DYEAR=2006
DGENRE=Jazz
TTITLE0=Cityscapes I: Lakeshore Drive (Chicago)
TTITLE1=Cityscapes II: The Lower East Side (NYC)
TTITLE2=Four Miniatures from Brazil I: Choro
TTITLE3=Four Miniatures from Brazil II: Samba
TTITLE4=Four Miniatures from Brazil III: Modinha
TTITLE5=Four Miniatures from Brazil IV: Maxixe
TTITLE6=Concerto for Alto Saxophone and Wind Orchestra: MVMT. 1
TTITLE7=Concerto for Alto Saxophone and Wind Orchestra: MVMT. 2
TTITLE8=Concerto for Alto Saxophone and Wind Orchestra: MVMT. 3
TTITLE9=Mosax Overdrive for Saxofonqvartett I: Groovy/Andante/Allegro
TTITLE10=Mosax Overdrive for Saxofonqvartett: Interlude
TTITLE11=Mosax Overdrive for Saxofonqvartett II: Freely/Driving
TTITLE12=Mosax Overdrive for Saxofonqvartett: Interlude/III: Lyrical/Interlude
TTITLE13=Mosax Overdrive for Saxofonqvartett IV: Twisted
TTITLE14=Mosax Overdrive for Saxofonqvartett V: Andante Duettino/Interlude
TTITLE15=Mosax Overdrive for Saxofonqvartett VI: Finale Furiouso
EXTD=YEAR: 2006
EXTT0=
EXTT1=
EXTT2=
EXTT3=
EXTT4=
EXTT5=
EXTT6=
EXTT7=
EXTT8=
EXTT9=
EXTT10=
EXTT11=
EXTT12=
EXTT13=
EXTT14=
EXTT15=
PLAYORDER=
